<?xml version="1.0" standalone="no"?><!DOCTYPE svg PUBLIC "-//W3C//DTD SVG 1.1//EN" "http://www.w3.org/Graphics/SVG/1.1/DTD/svg11.dtd"><svg t="1637050046085" class="icon" viewBox="0 0 1024 1024" version="1.1" xmlns="http://www.w3.org/2000/svg" p-id="19606" xmlns:xlink="http://www.w3.org/1999/xlink" width="200" height="200"><defs><style type="text/css"></style></defs><path d="M512 24.380952A487.619048 487.619048 0 1 1 24.380952 512 487.619048 487.619048 0 0 1 512 24.380952m0-24.380952a512 512 0 1 0 512 512A512 512 0 0 0 512 0z" fill="#333030" p-id="19607"></path><path d="M707.047619 390.095238a48.761905 48.761905 0 0 1 48.761905 48.761905v268.190476a48.761905 48.761905 0 0 1-48.761905 48.761905H316.952381a48.761905 48.761905 0 0 1-48.761905-48.761905V438.857143a48.761905 48.761905 0 0 1 48.761905-48.761905h390.095238m0-24.380952H316.952381a73.142857 73.142857 0 0 0-73.142857 73.142857v268.190476a73.142857 73.142857 0 0 0 73.142857 73.142857h390.095238a73.142857 73.142857 0 0 0 73.142857-73.142857V438.857143a73.142857 73.142857 0 0 0-73.142857-73.142857z" fill="#333030" p-id="19608"></path><path d="M755.809524 524.190476H268.190476a12.190476 12.190476 0 0 1 0-24.380952h487.619048a12.190476 12.190476 0 0 1 0 24.380952z" fill="#333030" p-id="19609"></path><path d="M512 622.567619a12.190476 12.190476 0 0 1-8.655238-3.535238l-43.032381-43.154286a12.190476 12.190476 0 0 1-3.657143-8.533333V524.190476a12.190476 12.190476 0 0 1 12.190476-12.190476h86.308572a12.190476 12.190476 0 0 1 12.190476 12.190476v43.154286a12.190476 12.190476 0 0 1-3.657143 8.533333l-43.032381 43.154286a12.190476 12.190476 0 0 1-8.655238 3.535238z" fill="#F37171" p-id="19610"></path><path d="M555.154286 524.190476v43.154286L512 610.377143l-43.154286-43.032381V524.190476h86.308572m0-24.380952h-86.308572a24.380952 24.380952 0 0 0-24.380952 24.380952v43.154286a24.380952 24.380952 0 0 0 7.192381 17.798095l43.154286 43.154286a24.380952 24.380952 0 0 0 34.377142 0L572.952381 585.142857a24.380952 24.380952 0 0 0 7.192381-17.188571V524.190476a24.380952 24.380952 0 0 0-24.380952-24.380952zM560.761905 268.190476a48.761905 48.761905 0 0 1 48.761905 48.761905v48.761905H414.47619v-48.761905a48.761905 48.761905 0 0 1 48.761905-48.761905h97.52381m0-24.380952h-97.52381a73.142857 73.142857 0 0 0-73.142857 73.142857v48.761905a24.380952 24.380952 0 0 0 24.380952 24.380952h195.04762a24.380952 24.380952 0 0 0 24.380952-24.380952v-48.761905a73.142857 73.142857 0 0 0-73.142857-73.142857z" fill="#333030" p-id="19611"></path></svg>